<?xml version="1.0" encoding="utf-8"?>
<!-- Generator: Adobe Illustrator 23.1.0, SVG Export Plug-In . SVG Version: 6.00 Build 0)  -->
<svg version="1.1" id="Layer_1" xmlns="http://www.w3.org/2000/svg" xmlns:xlink="http://www.w3.org/1999/xlink" x="0px" y="0px"
	 viewBox="0 0 36 36" style="enable-background:new 0 0 36 36;" xml:space="preserve">
<style type="text/css">
	.st0{fill:#673795;}
	.st1{fill:#FFFFFF;}
</style>
<title>ext_icon</title>
<path class="st0" d="M0,0h36v36H0V0z"/>
<path class="st1" d="M5.1,23.7h7v7h-7C5.1,30.7,5.1,23.7,5.1,23.7z"/>
<path class="st1" d="M5.1,14.3h7v7h-7C5.1,21.3,5.1,14.3,5.1,14.3z"/>
<path class="st1" d="M5.1,5.1h7v7h-7C5.1,12.1,5.1,5.1,5.1,5.1z"/>
<path class="st1" d="M14.5,5.1h7v7h-7C14.5,12.1,14.5,5.1,14.5,5.1z"/>
<path class="st1" d="M23.9,5.1h7v7h-7C23.9,12.1,23.9,5.1,23.9,5.1z"/>
<path class="st1" d="M14.5,14.5h7v7h-7C14.5,21.5,14.5,14.5,14.5,14.5z"/>
<path class="st1" d="M23.9,14.5h7v7h-7C23.9,21.5,23.9,14.5,23.9,14.5z"/>
<path class="st1" d="M14.5,23.7h7v7h-7C14.5,30.7,14.5,23.7,14.5,23.7z"/>
<path class="st1" d="M23.9,23.7h7v7h-7C23.9,30.7,23.9,23.7,23.9,23.7z"/>
</svg>
