<?xml version="1.0" encoding="utf-8"?>
<!-- Generator: Adobe Illustrator 23.1.0, SVG Export Plug-In . SVG Version: 6.00 Build 0)  -->
<svg version="1.1" id="Layer_1" xmlns="http://www.w3.org/2000/svg" xmlns:xlink="http://www.w3.org/1999/xlink" x="0px" y="0px"
	 viewBox="0 0 16 16" style="enable-background:new 0 0 16 16;" xml:space="preserve">
<style type="text/css">
	.st0{fill:#FFFFFF;}
	.st1{fill:#999999;}
	.st2{fill:#663399;}
</style>
<title>mimetypes-x-content-cardcontent</title>
<path class="st0" d="M1,1h14v14H1V1z"/>
<path class="st1" d="M1,1v14h14V1H1z M2,2h12v12H2V2z"/>
<path class="st2" d="M3,10.2h2.7v2.7H3V10.2z"/>
<path class="st2" d="M3,6.6h2.7v2.7H3V6.6z"/>
<path class="st2" d="M3,3h2.7v2.7H3V3z"/>
<path class="st2" d="M6.6,6.6h2.7v2.7H6.6V6.6z"/>
<path class="st2" d="M6.6,3h2.7v2.7H6.6V3z"/>
<path class="st2" d="M6.6,10.2h2.7v2.7H6.6V10.2z"/>
<path class="st2" d="M10.3,6.6H13v2.7h-2.7V6.6z"/>
<path class="st2" d="M10.3,3H13v2.7h-2.7V3z"/>
<path class="st2" d="M10.3,10.2H13v2.7h-2.7V10.2z"/>
</svg>
